<?xml version="1.0" standalone="no"?>
<!DOCTYPE svg PUBLIC "-//W3C//DTD SVG 20010904//EN"
 "http://www.w3.org/TR/2001/REC-SVG-20010904/DTD/svg10.dtd">
<svg version="1.0" xmlns="http://www.w3.org/2000/svg"
 width="500.000000pt" height="500.000000pt" viewBox="0 0 500.000000 500.000000"
 preserveAspectRatio="xMidYMid meet">

<g transform="translate(0.000000,500.000000) scale(0.100000,-0.100000)"
fill="#ffffff" stroke="none">
<path d="M2240 3939 c-527 -114 -887 -606 -831 -1138 24 -231 91 -383 296
-676 50 -71 112 -159 137 -195 25 -36 155 -220 289 -410 134 -190 262 -372
284 -404 22 -32 48 -62 58 -68 31 -16 18 -33 277 357 84 127 240 359 347 517
107 159 217 327 244 375 183 316 223 624 123 933 -56 171 -129 286 -273 431
-132 132 -302 227 -481 269 -138 33 -342 37 -470 9z m381 -44 c181 -31 319
-95 479 -221 144 -113 270 -304 327 -494 26 -89 28 -106 28 -275 0 -164 -3
-188 -27 -277 -43 -154 -138 -330 -342 -631 -344 -509 -578 -852 -591 -865
-13 -14 -38 21 -490 658 -76 107 -171 240 -210 295 -182 255 -265 408 -307
565 -31 115 -33 384 -5 500 25 101 103 259 175 356 220 297 604 452 963 389z"/>
<path d="M2165 3184 c-268 -261 -295 -290 -295 -320 0 -23 10 -43 34 -68 36
-39 65 -45 106 -21 14 8 28 14 33 15 4 0 7 -99 7 -219 0 -190 2 -220 16 -225
9 -3 194 -6 413 -6 295 0 400 3 409 12 9 9 12 73 12 225 0 117 2 213 5 213 3
0 17 -7 30 -16 54 -36 145 19 145 88 0 26 -38 67 -291 316 -160 158 -300 288
-310 290 -13 2 -107 -83 -314 -284z m431 107 c294 -280 434 -425 428 -443 -9
-30 -42 -42 -67 -25 -12 8 -124 114 -249 236 -174 169 -231 220 -243 214 -8
-5 -95 -88 -193 -184 -260 -257 -286 -279 -311 -272 -28 7 -45 38 -32 61 5 9
67 72 138 139 70 67 189 181 263 252 74 72 140 129 146 128 7 -1 61 -49 120
-106z m71 -271 l180 -175 -4 -210 c-2 -115 -3 -216 -3 -222 0 -10 -27 -13
-100 -13 l-100 0 0 165 c0 235 -13 255 -169 255 -85 0 -93 -2 -122 -28 -40
-36 -48 -78 -49 -254 l0 -138 -100 0 -100 0 0 220 0 220 183 180 c100 99 187
179 193 177 6 -1 92 -81 191 -177z m-217 -310 l0 -60 -45 0 -45 0 0 40 c0 47
27 80 65 80 24 0 25 -3 25 -60z m114 39 c20 -16 26 -29 26 -60 l0 -39 -45 0
-45 0 0 60 c0 52 3 60 19 60 10 0 30 -9 45 -21z m26 -249 l0 -100 -115 0 -115
0 0 100 0 100 115 0 115 0 0 -100z"/>
</g>
</svg>
